<?xml version="1.0" encoding="UTF-8" standalone="no"?>
<svg width="87px" height="592px" viewBox="0 0 87 592" version="1.1" xmlns="http://www.w3.org/2000/svg" xmlns:xlink="http://www.w3.org/1999/xlink">
    <!-- Generator: Sketch 41.2 (35397) - http://www.bohemiancoding.com/sketch -->
    <title>sprite</title>
    <desc>Created with Sketch.</desc>
    <defs>
        <polygon id="path-1" points="6.50793651 34.5830116 76.1428571 34.5830116 75.4920635 161.822394 6.50793651 161.822394"></polygon>
        <mask id="mask-2" maskContentUnits="userSpaceOnUse" maskUnits="objectBoundingBox" x="0" y="0" width="69.6349206" height="127.239382" fill="white">
            <use xlink:href="#path-1"></use>
        </mask>
        <path d="M0,162.148649 C0,158.364752 3.06483961,155.297297 6.85023418,155.297297 L75.1497658,155.297297 C78.9330457,155.297297 82,158.372451 82,162.148649 L82,162.148649 C82,165.932546 78.9348023,169 75.1482076,169 L41.8770461,169 L6.84484678,169 C3.06454229,169 0,165.924846 0,162.148649 L0,162.148649 Z" id="path-3"></path>
        <mask id="mask-4" maskContentUnits="userSpaceOnUse" maskUnits="objectBoundingBox" x="0" y="0" width="82" height="13.7027027" fill="white">
            <use xlink:href="#path-3"></use>
        </mask>
        <rect id="path-5" x="0" y="28.0579151" width="82" height="13.7027027" rx="6.85135135"></rect>
        <mask id="mask-6" maskContentUnits="userSpaceOnUse" maskUnits="objectBoundingBox" x="0" y="0" width="82" height="13.7027027" fill="white">
            <use xlink:href="#path-5"></use>
        </mask>
        <rect id="path-7" x="0" y="51.5482625" width="82" height="7.17760618" rx="3.58880309"></rect>
        <mask id="mask-8" maskContentUnits="userSpaceOnUse" maskUnits="objectBoundingBox" x="0" y="0" width="82" height="7.17760618" fill="white">
            <use xlink:href="#path-7"></use>
        </mask>
        <path d="M41.3253968,4.56756757 C58.734127,4.56756757 76.1428571,29.1144199 76.1428571,29.1144199 L6.50793651,29.1144199 C6.50793651,29.1144199 23.9166667,4.56756757 41.3253968,4.56756757 Z" id="path-9"></path>
        <mask id="mask-10" maskContentUnits="userSpaceOnUse" maskUnits="objectBoundingBox" x="0" y="0" width="69.6349206" height="24.5468524" fill="white">
            <use xlink:href="#path-9"></use>
        </mask>
        <rect id="path-11" x="35.1428571" y="0" width="13.015873" height="7.17760618" rx="3.58880309"></rect>
        <mask id="mask-12" maskContentUnits="userSpaceOnUse" maskUnits="objectBoundingBox" x="0" y="0" width="13.015873" height="7.17760618" fill="white">
            <use xlink:href="#path-11"></use>
        </mask>
        <rect id="path-13" x="0.266409266" y="0.347490347" width="22.2501073" height="29.0984034"></rect>
        <mask id="mask-14" maskContentUnits="userSpaceOnUse" maskUnits="objectBoundingBox" x="-2" y="-2" width="26.2501073" height="33.0984034">
            <rect x="-1.73359073" y="-1.65250965" width="26.2501073" height="33.0984034" fill="white"></rect>
            <use xlink:href="#path-13" fill="black"></use>
        </mask>
        <rect id="path-15" x="0" y="4" width="58" height="36"></rect>
        <mask id="mask-16" maskContentUnits="userSpaceOnUse" maskUnits="objectBoundingBox" x="0" y="0" width="58" height="36" fill="white">
            <use xlink:href="#path-15"></use>
        </mask>
        <circle id="path-17" cx="28.5" cy="22.5" r="9.5"></circle>
        <mask id="mask-18" maskContentUnits="userSpaceOnUse" maskUnits="objectBoundingBox" x="0" y="0" width="19" height="19" fill="white">
            <use xlink:href="#path-17"></use>
        </mask>
        <circle id="path-19" cx="28.5" cy="22.5" r="9.5"></circle>
        <mask id="mask-20" maskContentUnits="userSpaceOnUse" maskUnits="objectBoundingBox" x="0" y="0" width="19" height="19" fill="white">
            <use xlink:href="#path-19"></use>
        </mask>
        <circle id="path-21" cx="28.5" cy="22.5" r="11.5"></circle>
        <mask id="mask-22" maskContentUnits="userSpaceOnUse" maskUnits="objectBoundingBox" x="0" y="0" width="23" height="23" fill="white">
            <use xlink:href="#path-21"></use>
        </mask>
        <rect id="path-23" x="0" y="0" width="14" height="5"></rect>
        <mask id="mask-24" maskContentUnits="userSpaceOnUse" maskUnits="objectBoundingBox" x="0" y="0" width="14" height="5" fill="white">
            <use xlink:href="#path-23"></use>
        </mask>
        <rect id="path-25" x="0" y="0" width="58" height="46" rx="10"></rect>
        <mask id="mask-26" maskContentUnits="userSpaceOnUse" maskUnits="objectBoundingBox" x="0" y="0" width="58" height="46" fill="white">
            <use xlink:href="#path-25"></use>
        </mask>
        <polygon id="path-27" points="31.3975904 12.5 42.2289157 34.2 20.5662651 34.2"></polygon>
        <mask id="mask-28" maskContentUnits="userSpaceOnUse" maskUnits="objectBoundingBox" x="0" y="0" width="21.6626506" height="21.7" fill="white">
            <use xlink:href="#path-27"></use>
        </mask>
        <path d="M29.1708386,24.4420759 L29.8947649,56.2686355 C29.9416392,58.3294112 28.3047912,60 26.25313,60 L26.0742725,60 C24.0161787,60 22.3857708,58.3290778 22.4326376,56.2686355 L23.1527976,24.6076536 C19.4795137,23.4008341 16.8181818,19.6713736 16.8181818,13.6466165 C16.8181818,6.19595865 22.0405443,0 25.9090909,0 C29.7776375,0 35,6.03912124 35,13.6466165 C35,19.512284 32.5803046,23.1045776 29.1708386,24.4420759 Z" id="path-29"></path>
        <mask id="mask-30" maskContentUnits="userSpaceOnUse" maskUnits="objectBoundingBox" x="0" y="0" width="18.1818182" height="60" fill="white">
            <use xlink:href="#path-29"></use>
        </mask>
        <path d="M3.88831244,24.8669202 L3.1846365,55.7697986 C3.13718389,57.8537441 4.78797187,59.5437262 6.8717918,59.5437262 L7.05288502,59.5437262 C9.13019198,59.5437262 10.7875006,57.8540813 10.7400403,55.7697986 L10.0363644,24.8669202 L10.8554338,24.8669202 C12.5168182,24.8669202 13.8636364,23.5185282 13.8636364,21.8612012 L13.8636364,18.7268303 L13.8636364,4.5070339 C13.8636364,3.92623002 13.3951864,3.45503688 12.8173242,3.45503688 C12.2354332,3.45503688 11.771012,3.92603199 11.771012,4.5070339 L11.771012,15.9888222 L7.58576329,15.9888222 L7.58576329,4.24591338 C7.58576329,3.66510949 7.11731337,3.19391635 6.53945111,3.19391635 C5.95756011,3.19391635 5.49313894,3.66491146 5.49313894,4.24591338 L5.49313894,15.9888222 L2.09262436,15.9888222 L2.09262436,4.5070339 C2.09262436,3.92623002 1.62417444,3.45503688 1.04631218,3.45503688 C0.464421169,3.45503688 0,3.92603199 0,4.5070339 L0,18.7268303 L0,21.8612012 C0,23.5212139 1.3419005,24.8669202 3.00820261,24.8669202 L3.88831244,24.8669202 Z" id="path-31"></path>
        <mask id="mask-32" maskContentUnits="userSpaceOnUse" maskUnits="objectBoundingBox" x="0" y="0" width="13.8636364" height="56.3498099" fill="white">
            <use xlink:href="#path-31"></use>
        </mask>
        <path d="M32.5845102,-5.72875081e-14 C34.7331853,2.9666549 36,6.61458779 36,10.5585938 C36,20.5061913 27.9411255,28.5703125 18,28.5703125 C8.0588745,28.5703125 0,20.5061913 0,10.5585938 C0,6.61458779 1.26681472,2.9666549 3.41548984,9.75797221e-12 L32.5845102,9.75752812e-12 Z" id="path-33"></path>
        <mask id="mask-34" maskContentUnits="userSpaceOnUse" maskUnits="objectBoundingBox" x="0" y="0" width="36" height="28.5703125" fill="white">
            <use xlink:href="#path-33"></use>
        </mask>
        <path d="M32.1690203,52.453125 C31.6739838,51.7696328 31.1321378,51.1223031 30.5481902,50.5158465 C27.2739715,47.115419 22.6761214,45 17.5845102,45 C12.3028842,45 7.55256056,47.2762566 4.2598301,50.9018758 C3.81216932,51.3947942 3.39145005,51.9126537 3,52.453125 L32.1690203,52.453125 Z" id="path-35"></path>
        <mask id="mask-36" maskContentUnits="userSpaceOnUse" maskUnits="objectBoundingBox" x="0" y="0" width="29.1690203" height="7.453125" fill="white">
            <use xlink:href="#path-35"></use>
        </mask>
        <path d="M24.6194077,3.93018951e-14 C26.2428511,2.25315562 27.2,5.02373756 27.2,8.01918513 C27.2,15.5743225 21.1110726,21.6989715 13.6,21.6989715 C6.0889274,21.6989715 1.98951966e-13,15.5743225 1.98951966e-13,8.01918513 C1.98951966e-13,5.02373756 0.957148899,2.25315562 2.58059233,3.93018951e-14 L24.6194077,7.49444951e-12 Z" id="path-37"></path>
        <mask id="mask-38" maskContentUnits="userSpaceOnUse" maskUnits="objectBoundingBox" x="0" y="0" width="27.2" height="21.6989715" fill="white">
            <use xlink:href="#path-37"></use>
        </mask>
        <path d="M24.305482,39.8378165 C23.9314544,39.3187085 23.5220597,38.8270656 23.0808548,38.3664657 C20.6070007,35.7838625 17.1330695,34.1772152 13.2860743,34.1772152 C9.29551251,34.1772152 5.70637909,35.9060177 3.2185383,38.6596525 C2.88030571,39.0340209 2.56242893,39.4273319 2.26666667,39.8378165 L24.305482,39.8378165 Z" id="path-39"></path>
        <mask id="mask-40" maskContentUnits="userSpaceOnUse" maskUnits="objectBoundingBox" x="0" y="0" width="22.0388153" height="5.66060127" fill="white">
            <use xlink:href="#path-39"></use>
        </mask>
        <path d="M24.6194077,2.06057393e-13 C26.2428511,2.25315562 27.2,5.02373756 27.2,8.01918513 C27.2,15.5743225 21.1110726,21.6989715 13.6,21.6989715 C6.0889274,21.6989715 -7.60280727e-13,15.5743225 -7.60280727e-13,8.01918513 C-7.60280727e-13,5.02373756 0.957148899,2.25315562 2.58059233,2.06057393e-13 L24.6194077,7.66142705e-12 Z" id="path-41"></path>
        <mask id="mask-42" maskContentUnits="userSpaceOnUse" maskUnits="objectBoundingBox" x="0" y="0" width="27.2" height="21.6989715" fill="white">
            <use xlink:href="#path-41"></use>
        </mask>
        <path d="M24.305482,39.8378165 C23.9314544,39.3187085 23.5220597,38.8270656 23.0808548,38.3664657 C20.6070007,35.7838625 17.1330695,34.1772152 13.2860743,34.1772152 C9.29551251,34.1772152 5.70637909,35.9060177 3.2185383,38.6596525 C2.88030571,39.0340209 2.56242893,39.4273319 2.26666667,39.8378165 L24.305482,39.8378165 Z" id="path-43"></path>
        <mask id="mask-44" maskContentUnits="userSpaceOnUse" maskUnits="objectBoundingBox" x="0" y="0" width="22.0388153" height="5.66060127" fill="white">
            <use xlink:href="#path-43"></use>
        </mask>
    </defs>
    <g id="Page-1" stroke="none" stroke-width="1" fill="none" fill-rule="evenodd">
        <g id="sprite">
            <g id="ic-fort" transform="translate(3.000000, 4.000000)">
                <use id="Rectangle-2-Copy" stroke="#1B3D62" mask="url(#mask-2)" stroke-width="4" fill="#FFFFFF" xlink:href="#path-1"></use>
                <polygon id="Rectangle-2-Copy-2" fill="#A4B1C0" opacity="0.5" points="38.8868738 34.5830116 74.047526 34.5830116 73.3967324 161.822394 38.3492063 161.822394"></polygon>
                <rect id="Rectangle-4" fill="#D1D8DF" x="16.9206349" y="123.281853" width="13.015873" height="4.56756757"></rect>
                <rect id="Rectangle-4" fill="#D1D8DF" x="28.9206349" y="140.281853" width="13.015873" height="4.56756757"></rect>
                <rect id="Rectangle-4-Copy" fill="#1B3D62" x="52.7142857" y="120.714286" width="13.015873" height="4.56756757"></rect>
                <use id="Rectangle-2" stroke="#1B3D62" mask="url(#mask-4)" stroke-width="4" fill="#FFFFFF" xlink:href="#path-3"></use>
                <use id="Rectangle-2-Copy-3" stroke="#1B3D62" mask="url(#mask-6)" stroke-width="4" fill="#FFFFFF" xlink:href="#path-5"></use>
                <use id="Rectangle-2-Copy-5" stroke="#1B3D62" mask="url(#mask-8)" stroke-width="4" fill="#FFFFFF" xlink:href="#path-7"></use>
                <rect id="Rectangle-2-Copy-6" fill="#1B3D62" x="6.50793651" y="40.4555985" width="69.6349206" height="3.91505792" rx="1.95752896"></rect>
                <use id="Triangle" stroke="#1B3D62" mask="url(#mask-10)" stroke-width="4" fill="#FFFFFF" xlink:href="#path-9"></use>
                <use id="Rectangle-2-Copy-4" stroke="#1B3D62" mask="url(#mask-12)" stroke-width="4" fill="#FFFFFF" xlink:href="#path-11"></use>
                <g id="Group-5" transform="translate(29.000000, 71.000000)">
                    <g id="Rectangle-3">
                        <use fill="#1B3D62" fill-rule="evenodd" xlink:href="#path-13"></use>
                        <use stroke="#D1D8DF" mask="url(#mask-14)" stroke-width="4" xlink:href="#path-13"></use>
                    </g>
                    <polygon id="Rectangle-3" fill="#0D1E31" points="0.266409266 0.347490347 22.5165165 0.347490347 22.5165165 29.4458938 19.7234011 29.4458938 19.7234011 4.34542085 0.266409266 4.34542085"></polygon>
                </g>
            </g>
            <g id="ic-camera" transform="translate(3.000000, 198.000000)">
                <use id="Rectangle-15" stroke="#1B3D62" mask="url(#mask-16)" stroke-width="2" xlink:href="#path-15"></use>
                <use id="Oval" stroke="#1B3D62" mask="url(#mask-18)" stroke-width="2" xlink:href="#path-17"></use>
                <path d="M27.7972949,17.1841696 C25.6716281,17.6439471 23.8464426,18.910654 22.658403,20.6476257 M21.6620945,22.6224847 C21.3633129,23.4831924 21.2009782,24.407703 21.2009782,25.370129" id="Oval-Copy-2" stroke="#1B3D62" stroke-linecap="round" transform="translate(24.499137, 21.277149) rotate(-20.000000) translate(-24.499137, -21.277149) "></path>
                <use id="Oval-Copy" stroke="#1B3D62" mask="url(#mask-20)" stroke-width="2" xlink:href="#path-19"></use>
                <use id="Oval-Copy-3" stroke="#1B3D62" mask="url(#mask-22)" stroke-width="2" xlink:href="#path-21"></use>
                <circle id="Oval-5" fill="#1B3D62" cx="50.5" cy="10.5" r="2.5"></circle>
                <use id="Rectangle-16" stroke="#1B3D62" mask="url(#mask-24)" stroke-width="2" xlink:href="#path-23"></use>
            </g>
            <g id="ic-video" transform="translate(3.000000, 260.000000)" stroke="#1B3D62" stroke-width="2">
                <use id="Rectangle-14" mask="url(#mask-26)" xlink:href="#path-25"></use>
                <use id="Triangle" mask="url(#mask-28)" transform="translate(31.397590, 23.350000) rotate(-270.000000) translate(-31.397590, -23.350000) " xlink:href="#path-27"></use>
            </g>
            <g id="ic-restaurant" transform="translate(3.000000, 328.000000)" stroke="#1B3D62">
                <use id="Combined-Shape-Copy" mask="url(#mask-30)" stroke-width="2" fill="#FFFFFF" xlink:href="#path-29"></use>
                <use id="Combined-Shape-Copy-2" mask="url(#mask-32)" stroke-width="2" xlink:href="#path-31"></use>
                <path d="M24.3406245,5.14094664 C24.3406245,5.14094664 22.8523579,6.05037511 21.6226735,8.81497527 C21.3374257,9.45627482 21.089786,10.5118627 20.9326282,11.2494287 M20.6821113,12.7383242 C20.6011769,13.367835 20.5748663,13.7993428 20.5748663,13.7993428" id="Line-Copy" stroke-width="0.5" stroke-linecap="round"></path>
                <path d="M2.41022083,20.4103842 C2.41022083,20.4103842 2.26834608,21.7447871 2.80017999,22.2394894 C2.95317914,22.3818065 3.17576802,22.470911 3.41524479,22.5256412 M4.21237309,22.6066624 C4.49723776,22.6083357 4.70469881,22.5859278 4.70469881,22.5859278" id="Path-3-Copy" stroke-width="0.5" stroke-linecap="round"></path>
            </g>
            <g id="ic-bar" transform="translate(3.000000, 410.000000)" stroke="#1B3D62">
                <use id="Combined-Shape" mask="url(#mask-34)" stroke-width="2" xlink:href="#path-33"></use>
                <use id="Combined-Shape" mask="url(#mask-36)" stroke-width="2" stroke-linecap="round" stroke-linejoin="round" xlink:href="#path-35"></use>
                <path d="M18,28 L18,45.390625" id="Line" stroke-width="2"></path>
                <path d="M4.43798828,10.0185547 C4.43798828,10.0185547 4.43893578,15.730296 7.87353516,19.3056641 C8.76850771,20.2373175 9.75199778,20.9805327 10.7171061,21.5702555 M13.6446453,22.9877191 C15.0522579,23.5132798 16.0463867,23.6811523 16.0463867,23.6811523" id="Path-4" stroke-linecap="round"></path>
            </g>
            <g id="ic-cheers" transform="translate(0.000000, 486.000000)" stroke="#1B3D62">
                <g id="Group-3-Copy" transform="translate(17.793682, 37.539737) rotate(10.000000) translate(-17.793682, -37.539737) translate(3.793682, 17.539737)">
                    <use id="Combined-Shape" mask="url(#mask-38)" stroke-width="2" xlink:href="#path-37"></use>
                    <use id="Combined-Shape" mask="url(#mask-40)" stroke-width="2" stroke-linecap="round" stroke-linejoin="round" xlink:href="#path-39"></use>
                    <path d="M13.6,21.2658228 L13.6,34.4738924" id="Line" stroke-width="2"></path>
                    <path d="M3.3531467,7.60902888 C3.3531467,7.60902888 3.35386259,11.9470602 5.94889323,14.6625297 C6.62509471,15.3701146 7.3681761,15.9345818 8.09736904,16.3824725 M10.3092875,17.4590271 C11.3728171,17.8581872 12.1239366,17.9856853 12.1239366,17.9856853" id="Path-4" stroke-linecap="round"></path>
                </g>
                <g id="Group-3-Copy" transform="translate(50.206318, 37.539737) scale(-1, 1) rotate(10.000000) translate(-50.206318, -37.539737) translate(36.206318, 17.539737)">
                    <use id="Combined-Shape" mask="url(#mask-42)" stroke-width="2" xlink:href="#path-41"></use>
                    <use id="Combined-Shape" mask="url(#mask-44)" stroke-width="2" stroke-linecap="round" stroke-linejoin="round" xlink:href="#path-43"></use>
                    <path d="M13.6,21.2658228 L13.6,34.4738924" id="Line" stroke-width="2"></path>
                    <path d="M3.3531467,7.60902888 C3.3531467,7.60902888 3.35386259,11.9470602 5.94889323,14.6625297 C6.62509471,15.3701146 7.3681761,15.9345818 8.09736904,16.3824725 M10.3092875,17.4590271 C11.3728171,17.8581872 12.1239366,17.9856853 12.1239366,17.9856853" id="Path-4" stroke-linecap="round"></path>
                </g>
                <path d="M18.8888889,11.3924051 L17.4483075,8.97892181 M16.1840876,6.86090626 L14.3555556,3.79746835" id="Line" stroke-linecap="round" transform="translate(16.622222, 7.594937) rotate(7.000000) translate(-16.622222, -7.594937) "></path>
                <path d="M13.6,12.1518987 L11.3333333,8.35443038" id="Line-Copy-5" stroke-linecap="round"></path>
                <path d="M58.9333333,12.1518987 L56.6666667,8.35443038" id="Line-Copy-5" stroke-linecap="round" transform="translate(57.800000, 10.253165) scale(-1, 1) translate(-57.800000, -10.253165) "></path>
                <path d="M24.3685625,11.6644065 L22.0054668,7.0327969 M20.318879,3.72712632 L18.6292326,0.41546102" id="Line-Copy-2" stroke-linecap="round" transform="translate(21.498898, 6.039934) rotate(10.000000) translate(-21.498898, -6.039934) "></path>
                <path d="M29.2670792,11.7361363 L25.1922254,5.60235605" id="Line-Copy-3" stroke-linecap="round" transform="translate(27.000412, 8.318415) rotate(20.000000) translate(-27.000412, -8.318415) "></path>
                <path d="M54.4,12.1518987 L53.3781901,10.4400058 M52.327474,8.67968459 L49.8666667,4.55696203" id="Line" stroke-linecap="round" transform="translate(52.133333, 8.354430) scale(-1, 1) translate(-52.133333, -8.354430) "></path>
                <path d="M51.6915559,12.2862462 L48.2897945,6.86227247 M46.5260688,4.05008158 L44.3328712,0.55311492" id="Line-Copy-2" stroke-linecap="round" transform="translate(48.012214, 6.419681) scale(-1, 1) rotate(10.000000) translate(-48.012214, -6.419681) "></path>
                <path d="M44.0928384,12.7250713 L40.0179846,6.59129109" id="Line-Copy-3" stroke-linecap="round" transform="translate(41.826172, 9.307350) scale(-1, 1) rotate(20.000000) translate(-41.826172, -9.307350) "></path>
                <path d="M38.9348655,12.7693306 L37.6742582,11.0610277 M36.5805853,9.57894467 L32.778554,4.42664958" id="Line-Copy-4" stroke-linecap="round" transform="translate(35.856710, 8.597990) scale(-1, 1) rotate(34.000000) translate(-35.856710, -8.597990) "></path>
                <path d="M33.6197259,11.9550123 L32.062039,8.74925826" id="Line-Copy-6" stroke-linecap="round" transform="translate(32.486393, 10.056278) scale(-1, 1) rotate(34.000000) translate(-32.486393, -10.056278) "></path>
            </g>
            <g id="ic-menu" transform="translate(5.000000, 567.000000)" stroke="#1B3D62" stroke-width="3" stroke-linecap="round">
                <path d="M13,-10.8046875 L13,13.890625" id="Line" transform="translate(13.000000, 1.500000) rotate(90.000000) translate(-13.000000, -1.500000) "></path>
                <path d="M13,-2.8046875 L13,21.890625" id="Line-Copy-7" transform="translate(13.000000, 9.500000) rotate(90.000000) translate(-13.000000, -9.500000) "></path>
                <path d="M13,5.1953125 L13,29.890625" id="Line-Copy-8" transform="translate(13.000000, 17.500000) rotate(90.000000) translate(-13.000000, -17.500000) "></path>
            </g>
        </g>
    </g>
</svg>